<?xml version="1.0" encoding="UTF-8" standalone="no"?>
<svg xmlns:svg="http://www.w3.org/2000/svg" xmlns="http://www.w3.org/2000/svg" version="1.0" viewBox="0 0 20 33" width="20" height="33">
  <g style="fill:black;">
    <path d="M 10.989582,5.170208 L 11.59232,5.170208 C 12.716656,5.179878 13.759854,5.427156 14.721934,5.912046 C 15.683986,6.396952 16.49537,7.061508 17.15608,7.905722 C 17.042088,7.903804 16.933904,7.896076 16.83153,7.88254 C 16.72912,7.86903 16.620936,7.861302 16.506978,7.859358 C 15.455064,7.898004 14.637888,8.27279 14.05545,8.983704 C 13.472978,9.694632 13.1774,10.509882 13.168726,11.429442 C 13.238256,12.68998 13.667126,13.588296 14.455338,14.124386 C 15.243524,14.660476 15.973764,14.92128 16.646072,14.906788 L 16.646072,14.906788 C 17.505732,14.880706 18.232108,14.550364 18.825206,13.915746 C 19.418272,13.281126 19.727368,12.498724 19.752504,11.568536 C 19.752196,10.657844 19.448826,9.62008 18.842378,8.455236 C 18.235898,7.290398 17.328066,6.269806 16.118882,5.393444 C 14.909676,4.517112 13.400814,4.056328 11.59232,4.011098 L 10.989582,4.011098 L 9.274091,4.15019 C 5.946457,4.754872 3.560609,6.16513 2.116541,8.380966 C 0.672483,10.59681 -0.032648,13.18937 0.00116,16.158636 C -0.029756,19.127902 0.681173,21.720452 2.133933,23.936304 C 3.586685,26.15214 5.966739,27.562398 9.274091,28.16708 L 10.989582,28.306174 C 11.104522,28.308092 11.210768,28.31582 11.308342,28.329356 C 11.40589,28.342866 11.500548,28.350594 11.59232,28.352538 C 13.65296,28.270104 15.30663,27.6416 16.553344,26.467044 C 17.800014,25.292462 18.701552,24.066374 19.25795,22.788778 C 19.814298,21.511172 20.08734,20.676606 20.077054,20.28509 C 20.06931,20.119908 20.003626,19.986614 19.880004,19.885194 C 19.756342,19.783766 19.621112,19.731602 19.474316,19.72871 C 19.35548,19.727738 19.24537,19.764448 19.143966,19.83883 C 19.042522,19.913204 18.967182,20.031042 18.917934,20.192362 C 18.459102,22.127112 17.591698,23.763392 16.315722,25.101214 C 15.039712,26.439018 13.46525,27.13642 11.59232,27.193418 C 11.500548,27.191474 11.40589,27.183748 11.308342,27.170236 C 11.210768,27.156702 11.104512,27.148974 10.131842,26.984778 C 7.975871,26.294134 7.152895,25.310816 6.805171,23.872548 C 6.457429,22.43428 6.306745,20.651172 6.353117,18.523228 L 6.353117,16.158636 L 6.353117,13.794036 C 6.306745,11.666092 6.457429,9.88299 6.805171,8.444714 C 7.152903,7.006452 7.975871,6.023138 9.274091,5.494766 z M 8.038667,0.5 L 8.038667,32.1 L 8.538667,32.6 L 10.038667,32.6 L 10.538667,32.1 L 10.538667,0.5 L 10.038667,0 L 8.538667,0 z"/>
  </g>
</svg>
